<?xml version="1.0" encoding="UTF-8"?>
<svg version="1.1" xmlns="http://www.w3.org/2000/svg" width="2580" height="2580">
<path stroke="#fff" stroke-width="4" d="M0 0 C3.55868303 0.00603624 7.11735192 0.00032271 10.67603501 -0.00382082 C16.8979507 -0.00947729 23.11982976 -0.00778355 29.34174397 -0.00113545 C38.59344856 0.00872257 47.84512659 0.00703955 57.09683431 0.00311425 C72.6639158 -0.00314727 88.23098211 -0.00000519 103.79806187 0.00870837 C119.20476726 0.01733035 134.61146582 0.02222835 150.01817372 0.02204074 C150.97745322 0.02203309 151.93673271 0.02202545 152.92508128 0.02201757 C156.8191409 0.02197666 160.71320052 0.02191105 164.60726014 0.02181176 C201.10449861 0.02090649 237.60172667 0.03083985 274.09896153 0.04624142 C306.54011684 0.0598808 338.98126477 0.06610199 371.42242291 0.06543101 C373.50766618 0.0653906 375.59290944 0.06535024 377.6781527 0.06530993 C378.70905142 0.06528958 379.73995015 0.06526923 380.80208823 0.06524826 C385.99126258 0.06514747 391.18043694 0.06505689 396.36961129 0.06497802 C397.39331517 0.0649613 398.41701905 0.06494459 399.47174426 0.06492737 C426.5759593 0.06456257 453.68017341 0.06909655 480.78438768 0.07530458 C482.22964329 0.07563499 482.22964329 0.07563499 483.70409598 0.07597207 C487.57864297 0.07686031 491.45318996 0.07774869 495.32773695 0.07866303 C508.82263381 0.08182608 522.31752995 0.08333268 535.81242716 0.08377452 C553.18875228 0.08437055 570.5650713 0.08834446 587.94139381 0.09820598 C597.13703085 0.10333424 606.33265893 0.10572592 615.52829732 0.10420979 C621.65980291 0.10347842 627.79129975 0.10635603 633.92280254 0.1122536 C637.42290303 0.1155207 640.92298469 0.11717139 644.42308613 0.114493 C648.18193091 0.11244907 651.94071983 0.11645411 655.69955972 0.12209929 C656.80125767 0.12004398 657.90295563 0.11798866 659.03803837 0.11587106 C660.52828369 0.12001067 660.52828369 0.12001067 662.04863497 0.12423392 C663.33959654 0.12467116 663.33959654 0.12467116 664.65663814 0.12511725 C666.7210069 0.25073375 666.7210069 0.25073375 668.7210069 1.25073375 C668.77244013 58.65099591 668.82019159 116.0512604 668.84803632 173.45153941 C668.84865757 174.72893663 668.84865757 174.72893663 668.84929138 176.03213984 C668.85827327 194.54640658 668.86658336 213.06067356 668.87420289 231.5749409 C668.8779444 240.65632503 668.88183413 249.73770909 668.88580182 258.81909312 C668.8861941 259.72272712 668.88658637 260.62636111 668.88699054 261.55737796 C668.89974001 290.76689629 668.92224787 319.97639704 668.94989856 349.18590475 C668.97829708 379.2404964 668.99668646 409.29507834 669.00275187 439.34968318 C669.00361614 443.6094501 669.00459304 447.86921699 669.00563863 452.12898387 C669.0058409 452.96724244 669.00604316 453.80550101 669.00625156 454.66916136 C669.00977585 468.08062755 669.02363301 481.49206345 669.041503 494.90351736 C669.05930875 508.43632158 669.06587528 521.96909623 669.06151103 535.50191171 C669.05945138 542.81406161 669.06202179 550.12613079 669.07862332 557.43826426 C669.16138843 595.34821261 668.73075018 633.07222701 662.9710069 670.62573375 C662.84472913 671.4767567 662.71845136 672.32777965 662.58834699 673.20459117 C652.97710292 737.89374546 633.75140436 802.02281257 603.74102643 860.2414564 C602.63327415 862.42355339 601.56354545 864.62177993 600.49835065 866.8249525 C587.83072471 892.89873455 572.3711015 917.54986572 555.7210069 941.25073375 C555.11506696 942.12109263 555.11506696 942.12109263 554.4968858 943.00903453 C544.77621403 956.96783969 534.32735509 970.38453703 523.24835065 983.28979625 C520.77990755 986.18172804 518.36825497 989.11215265 515.9710069 992.06323375 C513.26576668 995.37557455 510.55500535 998.68100876 507.7835069 1001.93823375 C507.23823346 1002.58147593 506.69296002 1003.22471812 506.13116315 1003.8874525 C504.7210069 1005.25073375 504.7210069 1005.25073375 502.7210069 1005.25073375 C502.46123059 1005.83549983 502.20145428 1006.42026591 501.93380597 1007.02275218 C500.63495602 1009.40881415 499.2362361 1010.98290271 497.31622174 1012.89843883 C496.62144727 1013.59628993 495.92667279 1014.29414103 495.21084454 1015.01313914 C494.4588075 1015.75799067 493.70677045 1016.50284221 492.9319444 1017.270265 C491.7660629 1018.43545917 491.7660629 1018.43545917 490.57662824 1019.62419261 C488.92969017 1021.26811008 487.28032285 1022.90959688 485.62872174 1024.54882945 C483.12121823 1027.03820468 480.6216813 1029.53535949 478.12335065 1032.03393687 C476.51835043 1033.63401636 474.91289584 1035.23364023 473.3069444 1036.832765 C472.56705273 1037.57154384 471.82716107 1038.31032268 471.06484845 1039.07148875 C466.43772651 1043.65724755 461.66821785 1048.01352894 456.7210069 1052.25073375 C455.60312135 1053.2238908 454.48581826 1054.19771791 453.3694444 1055.17260875 C445.34443598 1062.12373747 437.12978139 1068.77109488 428.7210069 1075.25073375 C428.04634381 1075.77312633 427.37168073 1076.2955189 426.6765733 1076.83374156 C393.97506866 1102.14375872 359.1177264 1125.33453019 321.77911237 1143.25854625 C319.56645537 1144.32524115 317.36465378 1145.41270833 315.16241315 1146.50073375 C236.59938282 1184.98745697 150.04949914 1205.60690273 9.8810617 1209.36679937 C4.4274976 1209.36242461 -1.02606555 1209.3639462 -6.47963092 1209.36470164 C-15.89678561 1209.36522248 -25.3139333 1209.36212202 -34.73108623 1209.3564638 C-48.34620876 1209.34828866 -61.96132796 1209.34572746 -75.57645268 1209.34447581 C-97.67350908 1209.34229468 -119.77056176 1209.33566019 -141.86761615 1209.3261732 C-163.31520711 1209.3169747 -184.76279705 1209.30989427 -206.21038959 1209.30566539 C-206.87318732 1209.30553386 -207.53598505 1209.30540234 -208.21886756 1209.30526682 C-215.53645495 1209.30381728 -222.85404235 1209.30242549 -230.17162976 1209.30105735 C-285.20742011 1209.290714 -340.24320643 1209.2731214 -395.2789931 1209.25073375 C-394.9489931 1208.59073375 -394.6189931 1207.93073375 -394.2789931 1207.25073375 C-391.51141498 1206.76757945 -391.51141498 1206.76757945 -387.7477431 1206.426515 C-386.32369376 1206.28811776 -384.89970576 1206.14908839 -383.47577045 1206.00952281 C-382.71302814 1205.93769786 -381.95028583 1205.86587291 -381.16443011 1205.79187144 C-300.18531467 1198.03024192 -220.90280217 1173.83397708 -57.2789931 1077.25073375 C-56.66684955 1076.7819984 -56.05470599 1076.31326304 -55.42401263 1075.83032359 C-51.33351031 1072.6888267 -47.29288346 1069.48940923 -43.2789931 1066.25073375 C-42.60094623 1065.70417125 -41.92289935 1065.15760875 -41.2243056 1064.59448375 C-32.87617075 1057.84364545 -24.71272859 1050.96819631 -16.8571181 1043.64917125 C-12.7737836 1039.85043278 -8.58163115 1036.17947809 -4.30633685 1032.59839 C-3.67856342 1032.07116343 -3.05078998 1031.54393687 -2.4039931 1031.00073375 C-1.84969623 1030.5418275 -1.29539935 1030.08292125 -0.7243056 1029.61010875 C0.97530533 1028.11417976 0.97530533 1028.11417976 2.7210069 1025.25073375 C3.3810069 1025.25073375 4.0410069 1025.25073375 4.7210069 1025.25073375 C4.7210069 1024.59073375 4.7210069 1023.93073375 4.7210069 1023.25073375 C5.3810069 1023.25073375 6.0410069 1023.25073375 6.7210069 1023.25073375 C7.3810069 1021.93073375 8.0410069 1020.61073375 8.7210069 1019.25073375 C9.3810069 1019.25073375 10.0410069 1019.25073375 10.7210069 1019.25073375 C10.7210069 1018.59073375 10.7210069 1017.93073375 10.7210069 1017.25073375 C11.3810069 1017.25073375 12.0410069 1017.25073375 12.7210069 1017.25073375 C12.7210069 1016.59073375 12.7210069 1015.93073375 12.7210069 1015.25073375 C13.3810069 1015.25073375 14.0410069 1015.25073375 14.7210069 1015.25073375 C15.3810069 1013.93073375 16.0410069 1012.61073375 16.7210069 1011.25073375 C17.3810069 1011.25073375 18.0410069 1011.25073375 18.7210069 1011.25073375 C18.95432721 1010.6887025 19.18764752 1010.12667125 19.42803815 1009.54760875 C21.04037766 1006.68339233 23.0403631 1004.77821354 25.4085069 1002.50073375 C29.74613761 998.24354411 33.78539175 993.87625753 37.7210069 989.25073375 C38.62385933 988.21098178 39.52757956 987.17198301 40.4319444 986.13354625 C46.47321068 979.17433159 52.29470085 972.08596944 57.94366315 964.80542125 C59.81936821 962.39104193 61.72324826 960.00363974 63.65460065 957.63354625 C70.61656237 949.08183629 77.09423936 940.28099872 83.36309674 931.20971812 C84.5827694 929.45016159 85.81429771 927.70001562 87.05303815 925.95385875 C93.63288838 916.61165698 99.71300027 906.96766793 105.7210069 897.25073375 C106.2150401 896.45248179 106.7090733 895.65422984 107.21807721 894.83178843 C152.35121592 821.57608672 183.00524811 739.88712666 205.4710069 592.68823375 C205.53026349 592.01921031 205.58952008 591.35018687 205.65057233 590.66089 C211.80836571 519.63309478 208.30838032 441.33411859 208.7210069 373.25073375 C59.5610069 373.25073375 -89.5989931 373.25073375 -243.2789931 373.25073375 C-243.2789931 203.22620594 -243.2789931 203.22620594 -237.5914931 180.75073375 C-237.21021259 179.21328502 -237.21021259 179.21328502 -236.82122943 177.64477672 C-224.24487262 128.56649475 -195.61076166 82.38495613 -155.2789931 51.25073375 C-154.70874408 50.79875621 -154.13849506 50.34677867 -153.55096576 49.88110484 C-143.04797957 41.56149531 -132.06250306 34.6163056 -120.2789931 28.25073375 C-119.59337299 27.87964488 -118.90775287 27.50855601 -118.20135638 27.12622203 C-97.65233813 16.14006955 -75.82682632 8.6870542 -53.0289931 4.00073375 C-52.2987392 3.84959117 -51.56848529 3.69844859 -50.81610248 3.54272593 C-33.87098126 0.27041177 -17.20527124 -0.04007671 0 0 Z " fill="#0080A5" transform="translate(1431.2789931027219,969.749266252853)"/>
<path stroke="#fff" stroke-width="4" d="M0 0 C4.96733868 0.01325531 9.93466996 0.00855067 14.90202141 0.00629318 C23.45904088 0.00473858 32.01599044 0.01395449 40.57299232 0.03100669 C52.9441677 0.05564332 65.31531012 0.06322681 77.68650736 0.06697067 C97.76981359 0.07349705 117.85308277 0.09335327 137.93636894 0.1218785 C157.41716136 0.1495188 176.89794362 0.17070322 196.37875175 0.18340194 C197.58447546 0.18419011 198.79019917 0.18497828 200.03245996 0.18579034 C206.08269279 0.18970614 212.13292569 0.1934971 218.18315864 0.19722605 C268.18230119 0.22820289 318.18140355 0.28093301 368.18050957 0.34819686 C364.5388374 2.27515036 360.97958669 3.15023891 356.96175957 3.94194686 C355.47602536 4.24685543 353.99043611 4.55247094 352.50497246 4.85869491 C351.72042686 5.01897171 350.93588127 5.1792485 350.12756157 5.34438217 C263.74453448 23.12947158 181.95546675 58.99667877 71.85629082 139.14507186 C69.96324444 140.7037261 68.06419967 142.2551084 66.16097832 143.80132186 C65.17742363 144.60054061 64.19386894 145.39975936 63.18050957 146.22319686 C62.29363457 146.94249374 61.40675957 147.66179061 60.49300957 148.40288436 C58.21852286 150.24630355 58.21852286 150.24630355 56.49300957 152.10600936 C55.18050957 153.34819686 55.18050957 153.34819686 53.18050957 153.34819686 C53.18050957 154.00819686 53.18050957 154.66819686 53.18050957 155.34819686 C51.88754082 156.65288436 51.88754082 156.65288436 49.99300957 158.22319686 C39.35702928 167.31613338 29.39242325 177.03341929 19.49300957 186.91069686 C18.94983086 187.45128738 18.40665215 187.99187789 17.84701347 188.54884994 C16.28464798 190.10534299 14.72607424 191.66552712 13.16879082 193.22710311 C12.2565374 194.14048446 11.34428398 195.05386581 10.40438652 195.99492538 C8.06710557 198.33594733 8.06710557 198.33594733 6.18050957 201.34819686 C5.52050957 201.34819686 4.86050957 201.34819686 4.18050957 201.34819686 C3.96523613 201.88186874 3.74996269 202.41554061 3.52816582 202.96538436 C1.68474113 206.22477294 -0.81962416 208.77631457 -3.38199043 211.47319686 C-7.0058295 215.11223093 -7.0058295 215.11223093 -9.81949043 219.34819686 C-10.47949043 219.34819686 -11.13949043 219.34819686 -11.81949043 219.34819686 C-12.06054512 219.90120468 -12.30159981 220.45421249 -12.54995918 221.02397811 C-14.10279227 223.86685716 -16.01609405 226.08042593 -18.13199043 228.53569686 C-24.08105903 235.54262202 -29.63301945 242.83489451 -35.17154121 250.16802108 C-36.78761839 252.30603134 -38.41049987 254.43873131 -40.03433418 256.57085311 C-45.91939282 264.32416975 -51.49843244 272.19343935 -56.81949043 280.34819686 C-57.59217854 281.49671512 -58.36701943 282.64378719 -59.14370918 283.78960311 C-109.14658071 357.67192382 -142.97396711 441.82581079 -171.56949043 606.59819686 C-171.62874702 607.26626358 -171.68800362 607.93433029 -171.74905586 608.62264144 C-173.97676412 634.2321434 -173.9684938 659.88953603 -173.96146286 685.57189381 C-173.96124453 690.53865709 -173.96685365 695.50541425 -173.9718647 700.47217453 C-173.97992051 709.05497629 -173.98490152 717.63777515 -173.98815536 726.22057998 C-173.99369715 739.81535713 -174.01063869 753.41010982 -174.02949715 767.00487411 C-174.03585147 771.67350276 -174.04216023 776.34213148 -174.04847431 781.01076019 C-174.05005807 782.17703805 -174.05164184 783.34331592 -174.05327359 784.54493554 C-174.07115622 797.776392 -174.08740976 811.00785015 -174.10244942 824.23931015 C-174.10382529 825.44670828 -174.10520116 826.65410641 -174.10661872 827.89809236 C-174.12854612 847.46078576 -174.13930714 867.02347267 -174.14682017 886.58617619 C-174.15491824 906.74542766 -174.17828954 926.90462423 -174.21477383 947.06384432 C-174.23666768 959.4574888 -174.24650407 971.85102001 -174.2402735 984.24468282 C-174.23707548 992.74992088 -174.24858178 1001.25506276 -174.27116791 1009.76027104 C-174.28370949 1014.64904966 -174.29016102 1019.53761373 -174.27875137 1024.42640007 C-174.15326417 1083.82394839 -186.98192203 1139.78951239 -222.81949043 1188.34819686 C-223.25728828 1188.94293808 -223.69508614 1189.53767929 -224.14615059 1190.15044296 C-231.36144738 1199.85192946 -239.43030976 1208.65723027 -247.81949043 1217.34819686 C-248.36895332 1217.9248912 -248.91841621 1218.50158554 -249.4845295 1219.09575546 C-257.35783746 1227.34544826 -265.64749846 1234.57833647 -274.81949043 1241.34819686 C-275.45838203 1241.82611679 -276.09727364 1242.30403671 -276.75552559 1242.79643905 C-316.96904261 1272.73700608 -368.02504439 1292.64172565 -418.60186958 1292.46845138 C-419.53329666 1292.46930581 -420.46472375 1292.47016023 -421.42437589 1292.47104055 C-424.51655011 1292.47267551 -427.60866895 1292.46720674 -430.70083809 1292.46172225 C-432.92888576 1292.46143993 -435.15693353 1292.46159901 -437.38498116 1292.46216476 C-443.41313055 1292.46245096 -449.44125994 1292.45658289 -455.4694047 1292.4495908 C-461.77680325 1292.44332774 -468.08420229 1292.44275113 -474.39160347 1292.44156539 C-484.97157314 1292.43881323 -495.55153628 1292.4325725 -506.13150215 1292.42363632 C-517.02473095 1292.41444515 -527.91795776 1292.40737267 -538.81118965 1292.4031285 C-539.48362342 1292.40286578 -540.15605718 1292.40260306 -540.84886773 1292.40233237 C-544.22256148 1292.40102725 -547.59625524 1292.39976357 -550.96994901 1292.39852047 C-578.91980123 1292.38816835 -606.86964538 1292.37049319 -634.81949043 1292.34819686 C-634.87096663 1226.42060551 -634.91865704 1160.49301178 -634.94651985 1094.56540573 C-634.94693402 1093.58792677 -634.94734819 1092.61044782 -634.94777492 1091.60334829 C-634.95675596 1070.35442299 -634.96506617 1049.10549749 -634.97268642 1027.85657166 C-634.97642807 1017.4344278 -634.98031778 1007.012284 -634.98428535 996.59014022 C-634.98467763 995.55307295 -634.98506991 994.51600568 -634.98547407 993.44751213 C-634.99823277 959.90036465 -635.02074765 926.35323244 -635.0483821 892.80609419 C-635.07675445 858.30006031 -635.095164 823.79403487 -635.1012354 789.28798952 C-635.10209973 784.40183087 -635.10307663 779.51567224 -635.10412216 774.62951362 C-635.10432443 773.66795239 -635.1045267 772.70639115 -635.1047351 771.7156917 C-635.10826495 756.30635335 -635.12213747 740.89704125 -635.13998653 725.48771356 C-635.15775469 709.95427151 -635.16436799 694.42085519 -635.15999456 678.88740335 C-635.15792928 670.48806128 -635.16056857 662.08878947 -635.17710686 653.68946159 C-635.30082456 588.36503806 -635.30082456 588.36503806 -631.81949043 558.34819686 C-631.63656915 556.71896787 -631.63656915 556.71896787 -631.44995248 555.05682516 C-630.78140316 549.15673394 -630.01318973 543.28268858 -629.13199043 537.41069686 C-629.00699165 536.55796188 -628.88199287 535.70522689 -628.75320625 534.82665145 C-619.93975966 475.04415502 -602.22131354 417.4013884 -576.851717 362.58452499 C-575.85841468 360.4325266 -574.88065989 358.27405646 -573.90542793 356.11382186 C-568.9082461 345.14918173 -563.21272973 334.6006543 -557.33999825 324.08306015 C-555.92810987 321.54356534 -554.53951317 318.99275807 -553.15542793 316.43804061 C-540.07187739 292.5989224 -524.31212614 269.94078583 -507.81949043 248.34819686 C-506.92427082 247.15861041 -506.02971017 245.96852769 -505.13589668 244.77788436 C-500.13696984 238.15682737 -494.88242762 231.78694231 -489.48745918 225.48882186 C-486.95740287 222.52903006 -484.51055108 219.50690891 -482.06949043 216.47319686 C-479.0867796 212.80584244 -476.00888826 209.40285306 -472.60099983 206.13065231 C-470.82418819 204.35289712 -469.190898 202.50819206 -467.55752754 200.598441 C-464.06642859 196.58272006 -460.403535 192.78706543 -456.63589668 189.03179061 C-455.97669731 188.37163452 -455.31749794 187.71147842 -454.63832283 187.03131759 C-453.25552208 185.64784181 -451.87147968 184.26560603 -450.48623848 182.88457382 C-448.387187 180.79088017 -446.29353103 178.69189812 -444.20034981 176.59233749 C-442.84585257 175.23850116 -441.49104512 173.88497511 -440.13589668 172.53179061 C-439.52105919 171.91492889 -438.90622169 171.29806716 -438.27275276 170.66251266 C-425.89312121 158.34819686 -425.89312121 158.34819686 -422.81949043 158.34819686 C-422.81949043 157.68819686 -422.81949043 157.02819686 -422.81949043 156.34819686 C-421.33210808 154.99437538 -419.77518493 153.71679801 -418.19449043 152.47319686 C-414.34250806 149.39849829 -410.56189013 146.28139798 -406.85196114 143.03716171 C-398.82524766 136.03016556 -390.44289159 129.60103802 -381.81949043 123.34819686 C-380.8403669 122.63760116 -380.8403669 122.63760116 -379.84146309 121.91264999 C-354.69758393 103.75075957 -328.66501524 87.33225472 -301.32534981 72.69731796 C-299.12080523 71.51042071 -296.92892617 70.30427854 -294.74136543 69.08647811 C-272.48901773 56.81670259 -248.69254497 46.95112886 -224.81949043 38.34819686 C-223.85072975 37.99788406 -223.85072975 37.99788406 -222.86239815 37.64049423 C-182.12493072 22.93106157 -140.69472453 12.32967771 -97.81949043 6.03569686 C-97.04155128 5.91836196 -96.26361214 5.80102706 -95.46209908 5.68013656 C-63.79645501 0.96672949 -31.95998859 -0.10759861 0 0 Z " fill="#0080A5" transform="translate(1179.8194904327393,198.6518031358719)"/>
<path stroke="#fff" stroke-width="4" d="M0 0 C0.33 0 0.66 0 1 0 C1.75487588 98.13814434 -8.93175453 193.37137401 -92.50683594 391.41064453 C-93.82259452 393.69235406 -95.1215621 395.98241806 -96.4140625 398.27734375 C-106.99638985 416.88208739 -119.28092294 434.79555305 -132 452 C-132.47630859 452.64469238 -132.95261719 453.28938477 -133.44335938 453.95361328 C-139.47231656 462.09729023 -145.5935071 470.14813981 -152 478 C-152.71671875 478.89074219 -153.4334375 479.78148437 -154.171875 480.69921875 C-158.58844434 486.15901223 -163.13841013 491.45355302 -167.86328125 496.6484375 C-171.7280284 500.90177897 -175.55991683 505.17871834 -179.125 509.6875 C-181.25745578 512.31752879 -183.59426908 514.61647848 -186 517 C-187.81941061 518.83033145 -189.63839685 520.6610848 -191.45703125 522.4921875 C-193.0348401 524.07738211 -194.61313633 525.66208966 -196.19165039 527.24658203 C-197.26775379 528.32771017 -198.34295744 529.40973467 -199.41723633 530.49267578 C-204.90766652 536.02603283 -210.396063 541.50814421 -216.32983398 546.57275391 C-218.65908727 548.56322529 -220.88443454 550.66072675 -223.125 552.75 C-227.82686675 557.04216052 -232.71056408 561.00507223 -237.74560547 564.89794922 C-241.49672058 567.80121653 -245.14317364 570.7919866 -248.75 573.875 C-256.49330069 580.37771847 -264.74874614 586.16539109 -273 592 C-274.08991084 592.77855192 -275.17976208 593.55718729 -276.26953125 594.3359375 C-350.32491093 646.55323012 -442.21627585 684.48886985 -570.06068099 690.47430348 C-575.08213972 690.43750218 -580.10365772 690.43137729 -585.12522888 690.4216156 C-593.7816207 690.40134953 -602.43779872 690.36427835 -611.09407997 690.3164978 C-624.79123191 690.24218098 -638.4882669 690.21878514 -652.18559265 690.20239258 C-656.89409777 690.19611667 -661.6026023 690.18946616 -666.31110668 690.18266296 C-667.48683657 690.18097022 -668.66256646 690.17927748 -669.87392453 690.17753345 C-683.18005127 690.15757238 -696.48614345 690.12608709 -709.79223633 690.09033203 C-711.00523032 690.0870851 -712.21822431 690.08383817 -713.4679757 690.08049285 C-733.19077386 690.02658745 -752.91335629 689.94143148 -772.636008 689.8494966 C-792.96393944 689.75598705 -813.29159729 689.71254404 -833.61974305 689.71116829 C-846.12076662 689.70841994 -858.62027923 689.66459903 -871.12092825 689.56694883 C-879.67421365 689.50351897 -888.2267677 689.48745004 -896.78025983 689.50821787 C-901.70687048 689.51867848 -906.63104211 689.50824533 -911.55724716 689.44024467 C-934.83907246 688.11212573 -934.83907246 688.11212573 -955.17082214 697.37426758 C-956.80585562 699.03008901 -958.31277784 700.70847564 -959.7688936 702.5226078 C-961.43856256 704.52629805 -963.38348362 705.99237848 -965.5 707.5 C-969.56735834 710.62755206 -973.52983892 713.8758665 -977.5 717.125 C-983.16772605 721.75900249 -988.91484887 726.26639459 -994.75 730.6875 C-1000.6567516 735.16430801 -1006.3965535 739.766935 -1012.05859375 744.55078125 C-1015.81237724 747.6764416 -1019.65450675 750.67869104 -1023.50634766 753.68188477 C-1028.07326169 757.25091747 -1032.57505633 760.89422268 -1037.0625 764.5625 C-1041.79899859 768.43232493 -1046.56920813 772.23468449 -1051.4375 775.9375 C-1057.31461138 780.41633953 -1063.00365128 785.09891547 -1068.68969727 789.81689453 C-1074.04255904 794.24547334 -1079.49904554 798.50477256 -1085.02734375 802.7109375 C-1088.80013707 805.61613708 -1092.46815974 808.63765421 -1096.140625 811.66796875 C-1099.29118521 814.23748302 -1102.48342304 816.74784942 -1105.6875 819.25 C-1110.78213319 823.22891272 -1115.81117651 827.27955348 -1120.8125 831.375 C-1126.35278306 835.90881627 -1131.97856487 840.3057652 -1137.6875 844.625 C-1143.36010307 848.91951306 -1148.86807462 853.34182123 -1154.26293945 857.97924805 C-1159.18979827 862.20237941 -1164.28085112 866.19547881 -1169.3984375 870.18359375 C-1173.12560472 873.08939998 -1176.81456076 876.04155543 -1180.5 879 C-1188.75854215 885.6226069 -1197.08288449 892.15990037 -1205.42578125 898.67578125 C-1212.35956059 904.09823874 -1219.22168971 909.59972352 -1226.04077148 915.16577148 C-1230.30270429 918.6387048 -1234.6010643 922.05820832 -1238.9375 925.4375 C-1244.22161216 929.55663494 -1249.40457104 933.78662168 -1254.5625 938.0625 C-1260.51284944 942.99347215 -1266.54410399 947.76671251 -1272.6953125 952.4453125 C-1276.50520848 955.36584674 -1280.22018286 958.40056884 -1283.9375 961.4375 C-1289.496883 965.97934102 -1295.09388788 970.46420761 -1300.75244141 974.88183594 C-1303.91037417 977.34979258 -1307.05046948 979.83749577 -1310.171875 982.3515625 C-1310.86273193 982.9077124 -1311.55358887 983.4638623 -1312.26538086 984.03686523 C-1313.60900306 985.12025577 -1314.95101911 986.20564191 -1316.29125977 987.29321289 C-1320.89038731 991 -1320.89038731 991 -1322 991 C-1322.01715848 926.2976691 -1322.03305532 861.59533793 -1322.04234314 796.89300537 C-1322.0424812 795.93371495 -1322.04261925 794.97442452 -1322.04276149 793.98606469 C-1322.04575517 773.13260282 -1322.04852524 752.27914092 -1322.05106533 731.42567898 C-1322.05231255 721.19752296 -1322.05360912 710.96936695 -1322.05493164 700.74121094 C-1322.0550624 699.72344586 -1322.05519316 698.70568079 -1322.05532788 697.65707434 C-1322.05958089 664.73346785 -1322.06708593 631.80986309 -1322.07629722 598.88625764 C-1322.08575436 565.02198753 -1322.09189112 531.15771838 -1322.09391499 497.29344698 C-1322.0942031 492.49832246 -1322.09452873 487.70319794 -1322.09487724 482.90807343 C-1322.09497838 481.49260187 -1322.09497838 481.49260187 -1322.09508156 480.04853494 C-1322.09625824 464.92539861 -1322.10088259 449.80226525 -1322.10683203 434.67913013 C-1322.1127543 419.43472362 -1322.11495929 404.19032001 -1322.11350138 388.94591239 C-1322.11281288 380.7026647 -1322.11369532 372.45942498 -1322.11920547 364.21617889 C-1322.15602069 306.79355751 -1322.15602069 306.79355751 -1321.55540466 285.88275146 C-1321.53595919 285.2050046 -1321.51651371 284.52725773 -1321.49647898 283.82897308 C-1321.277544 276.56204478 -1320.91625397 269.30754037 -1320.48047405 262.05099702 C-1320.43418827 261.27258911 -1320.38790249 260.4941812 -1320.34021411 259.69218517 C-1320.22731688 257.79475985 -1320.11373059 255.89737555 -1320 254 C-1319.04201739 253.9997558 -1318.08403478 253.9995116 -1317.09702239 253.99925999 C-1284.29327837 253.99086746 -1251.48953461 253.9815878 -1218.68579102 253.97167969 C-1217.69444089 253.97138038 -1217.69444089 253.97138038 -1216.68306349 253.97107502 C-1145.84159688 253.94966177 -1075.00013537 253.92240574 -1004.15867615 253.88336182 C-1002.58439557 253.88249564 -1001.010115 253.88162947 -999.43583442 253.8807633 C-966.38841729 253.86256289 -933.34100068 253.84354216 -900.29358458 253.8235743 C-883.69180363 253.81354407 -867.09002259 253.80367141 -850.48824147 253.79394775 C-847.98398682 253.7924801 -845.47973218 253.79100794 -842.97547754 253.7895356 C-804.43142719 253.76691379 -765.8873788 253.7476631 -727.34332275 253.73822021 C-726.1010257 253.73791577 -726.1010257 253.73791577 -724.83363175 253.73760517 C-711.48134807 253.73435351 -698.12906433 253.73138579 -684.77678058 253.72845577 C-646.29963597 253.72000805 -607.82249712 253.70944709 -569.34535885 253.68501663 C-568.55344274 253.68451484 -567.76152663 253.68401305 -566.94561306 253.68349605 C-549.55755205 253.67244052 -532.16949196 253.66030613 -514.78143241 253.64715141 C-507.78415325 253.6418767 -500.78687397 253.63675717 -493.78959465 253.63169098 C-493.02379191 253.63113278 -492.25798918 253.63057457 -491.4689803 253.62999945 C-466.82970379 253.61211667 -442.19044455 253.60684584 -417.55116219 253.60824626 C-392.71345157 253.60959986 -367.87577997 253.59846949 -343.03808444 253.57019765 C-339.59888689 253.56628604 -336.1596892 253.56251628 -332.72049141 253.55883217 C-332.04636268 253.5581049 -331.37223396 253.55737763 -330.67767709 253.55662833 C-319.39594744 253.54484592 -308.11426453 253.5487959 -296.8325305 253.55702825 C-286.99556493 253.56310716 -277.15868015 253.55461976 -267.32173349 253.5345077 C-261.72376757 253.52347292 -256.12599181 253.51856275 -250.52802557 253.53148755 C-218.5564327 253.68961666 -218.5564327 253.68961666 -187 249 C-185.70268892 248.70901277 -185.70268892 248.70901277 -184.37916953 248.41214702 C-178.84603085 247.15102045 -173.41818218 245.6892306 -168 244 C-166.75549072 243.61448975 -166.75549072 243.61448975 -165.48583984 243.22119141 C-153.7628764 239.49265917 -142.73720447 234.6298407 -131.8125 229 C-130.14767578 228.14643921 -130.14767578 228.14643921 -128.44921875 227.27563477 C-122.05567587 223.89735988 -116.18774797 220.17189229 -110.41967773 215.80908203 C-108.08454109 214.0632075 -105.70039964 212.45363854 -103.25 210.875 C-99.69204375 208.5498724 -96.53327281 205.98103167 -93.41015625 203.1015625 C-92 202 -92 202 -90 202 C-90 201.34 -90 200.68 -90 200 C-88.50146638 198.71860084 -86.94744957 197.50203317 -85.375 196.3125 C-73.78618065 187.01761148 -64.14716942 175.54580118 -55.26611328 163.68994141 C-54.0522426 162.06973068 -52.82139856 160.46227851 -51.58984375 158.85546875 C-39.00075915 142.1119093 -28.82174616 123.40248684 -21 104 C-20.65775391 103.15856445 -20.31550781 102.31712891 -19.96289062 101.45019531 C-6.91392853 68.87675429 -2.15319228 34.81869475 0 0 Z " fill="#021E4E" transform="translate(1534,1483)"/>
<path stroke="#fff" stroke-width="4" d="M0 0 C8.93430657 6.70072993 8.93430657 6.70072993 12 9.9375 C15.11937557 13.21702209 18.4532955 16.16094862 21.86816406 19.12426758 C25.28042633 22.12660507 28.57363922 25.25185033 31.875 28.375 C39.15133756 35.22604774 46.43585281 42.04771168 54.125 48.4375 C55.07375 49.283125 56.0225 50.12875 57 51 C57 51.66 57 52.32 57 53 C57.57814453 53.25595947 58.15628906 53.51191895 58.75195312 53.77563477 C61.22263017 55.1212522 62.94341554 56.64072892 64.96875 58.58984375 C66.07283203 59.64268555 66.07283203 59.64268555 67.19921875 60.71679688 C68.33810547 61.81604492 68.33810547 61.81604492 69.5 62.9375 C71.00864962 64.38595731 72.51900861 65.83263678 74.03125 67.27734375 C74.69705078 67.91921631 75.36285156 68.56108887 76.04882812 69.22241211 C77.98267618 71.05431495 77.98267618 71.05431495 80.24804688 72.60766602 C80.82619141 73.06713623 81.40433594 73.52660645 82 74 C82 74.66 82 75.32 82 76 C82.57814453 76.25595947 83.15628906 76.51191895 83.75195312 76.77563477 C86.22263017 78.1212522 87.94341554 79.64072892 89.96875 81.58984375 C90.70480469 82.29173828 91.44085937 82.99363281 92.19921875 83.71679688 C93.33810547 84.81604492 93.33810547 84.81604492 94.5 85.9375 C96.00864962 87.38595731 97.51900861 88.83263678 99.03125 90.27734375 C99.69705078 90.91921631 100.36285156 91.56108887 101.04882812 92.22241211 C102.98267618 94.05431495 102.98267618 94.05431495 105.24804688 95.60766602 C105.82619141 96.06713623 106.40433594 96.52660645 107 97 C107 97.66 107 98.32 107 99 C107.57234375 99.2578125 108.1446875 99.515625 108.734375 99.78125 C111.21128995 101.11365942 113.1341166 102.65056118 115.25 104.5 C115.95640625 105.1084375 116.6628125 105.716875 117.390625 106.34375 C119 108 119 108 119 110 C119.87591797 110.39264038 119.87591797 110.39264038 120.76953125 110.79321289 C123.12668654 112.0685433 124.75667432 113.45644821 126.6875 115.30859375 C127.38069336 115.96827148 128.07388672 116.62794922 128.78808594 117.30761719 C129.8829834 118.36190918 129.8829834 118.36190918 131 119.4375 C132.52550059 120.88989144 134.05154531 122.34171158 135.578125 123.79296875 C136.32771484 124.50759277 137.07730469 125.2222168 137.84960938 125.95849609 C140.79068821 128.75065109 143.76164909 131.50859239 146.75 134.25 C147.65234375 135.08015625 148.5546875 135.9103125 149.484375 136.765625 C151.99958836 139.05311319 151.99958836 139.05311319 154.828125 141.171875 C155.54484375 141.77515625 156.2615625 142.3784375 157 143 C157 143.66 157 144.32 157 145 C157.57878906 145.26167969 158.15757813 145.52335938 158.75390625 145.79296875 C161.13570631 147.07292739 162.92316646 148.51356054 164.9375 150.3125 C165.91009766 151.17294922 165.91009766 151.17294922 166.90234375 152.05078125 C168.38031387 153.42416503 169.82850629 154.82994218 171.25390625 156.2578125 C174.76780471 159.76671253 178.38008954 163.16352876 182 166.5625 C182.74967041 167.26705322 183.49934082 167.97160645 184.27172852 168.69750977 C193.23618915 177.11260033 202.25861165 185.45674896 211.4140625 193.6640625 C215.54470636 197.39536919 219.62481282 201.18103294 223.7109375 204.9609375 C226.7987495 207.81666498 229.89757238 210.66016833 233 213.5 C240.65391152 220.51032428 248.29920534 227.53020818 255.875 234.625 C256.53072998 235.23883545 257.18645996 235.8526709 257.86206055 236.48510742 C259.11727383 237.66113338 260.37142941 238.83828982 261.62426758 240.0168457 C264.67483179 242.8755664 267.75970284 245.67842702 270.91796875 248.41796875 C275.96798884 252.80952914 280.79542526 257.42843714 285.64453125 262.0390625 C292.14065111 268.19078113 298.81381006 274.08714436 305.75 279.73828125 C307 281 307 281 307 283 C307.57234375 283.24363281 308.1446875 283.48726563 308.734375 283.73828125 C311.40433538 285.22517298 313.13829007 286.98083908 315.25 289.1875 C318.58750173 292.6007311 321.9936328 295.79958335 325.6171875 298.90234375 C329.54914563 302.36375607 333.35219018 305.96561789 337.16479492 309.55761719 C337.74592041 310.10192383 338.3270459 310.64623047 338.92578125 311.20703125 C339.44567627 311.6966333 339.96557129 312.18623535 340.5012207 312.69067383 C342.1765739 314.21136288 342.1765739 314.21136288 345 316 C345 316.66 345 317.32 345 318 C345.56203125 318.2475 346.1240625 318.495 346.703125 318.75 C349.39092569 320.21274867 351.46405482 321.96804873 353.75 324 C354.54921875 324.70125 355.3484375 325.4025 356.171875 326.125 C358 328 358 328 358 330 C358.58265625 330.25394531 359.1653125 330.50789063 359.765625 330.76953125 C362.24188033 332.13320333 363.80520626 333.64225203 365.75 335.6875 C369.12109761 339.15960428 372.62911873 342.34832467 376.3359375 345.45703125 C378 347 378 347 380 350 C378.5783047 351.1170463 377.15660122 352.23408218 375.73486328 353.35107422 C374.47528815 354.34081126 373.21585217 355.33072541 371.95654297 356.32080078 C368.81270674 358.79212537 365.6673445 361.26139077 362.515625 363.72265625 C355.48412988 369.21971253 348.52872252 374.80173559 341.61206055 380.44262695 C337.57576651 383.73100353 333.50812073 386.96820077 329.3828125 390.14453125 C326.16741989 392.64832058 322.99125065 395.19994272 319.8125 397.75 C314.87238375 401.71099411 309.91881598 405.65342387 304.9375 409.5625 C304.36209473 410.01423584 303.78668945 410.46597168 303.19384766 410.93139648 C300.33632312 413.17293011 297.47507019 415.40954743 294.609375 417.640625 C288.13871473 422.68818473 281.75664435 427.82615414 275.4375 433.0625 C269.48703514 437.99334036 263.45590362 442.76670673 257.3046875 447.4453125 C253.49478967 450.36584816 249.77985814 453.40061643 246.0625 456.4375 C238.22022565 462.84285041 230.27263809 469.10375792 222.29101562 475.33398438 C215.45050815 480.67691211 208.66016913 486.07175878 201.9375 491.5625 C197.17815581 495.44969522 192.38626168 499.27339498 187.5 503 C180.46554288 508.36541201 173.62462693 513.95894971 166.77294922 519.5546875 C157.15712531 527.39353046 147.37886245 535.03534488 137.58984375 542.65625 C131.14876098 547.67988666 124.79281245 552.79152229 118.5 558 C111.65076816 563.66901868 104.71710495 569.21193647 97.70166016 574.67333984 C94.79418889 576.94008287 91.89767334 579.22075465 89 581.5 C85.52691001 584.23103042 82.05251067 586.96027547 78.5703125 589.6796875 C71.6380401 595.09946411 64.7789578 600.60014151 57.96142578 606.16357422 C53.11831136 610.10933957 48.22400297 613.98302741 43.30004883 617.82714844 C38.71775631 621.41380002 34.19693023 625.07230446 29.6875 628.75 C24.17911355 633.23937395 18.65690316 637.69798448 13 642 C11.95328125 642.79792969 10.9065625 643.59585938 9.828125 644.41796875 C1.14187681 651 1.14187681 651 0 651 C0 615.69 0 580.38 0 544 C-22.21618668 544.0204568 -22.21618668 544.0204568 -44.43237305 544.04124451 C-45.59205654 544.04233956 -45.59205654 544.04233956 -46.77516799 544.04345674 C-97.9901212 544.09185382 -149.20507088 544.14260907 -200.42001343 544.20132446 C-201.4094314 544.20245809 -202.39884938 544.20359171 -203.41824971 544.20475969 C-224.92312735 544.22941353 -246.42800444 544.25450651 -267.93288103 544.28005161 C-278.47950523 544.29257701 -289.02612954 544.30500541 -299.57275391 544.31738281 C-300.62224646 544.31861614 -301.67173902 544.31984946 -302.75303438 544.32112016 C-336.74452888 544.36102026 -370.73602601 544.39452042 -404.72753042 544.42468691 C-439.67039147 544.4557316 -474.61323972 544.49326251 -509.55608489 544.53890612 C-514.49624579 544.54535612 -519.43640679 544.5517323 -524.37656784 544.55806351 C-525.83494979 544.55993596 -525.83494979 544.55993596 -527.322794 544.56184625 C-542.94708195 544.58171711 -558.57136847 544.59478974 -574.19566522 544.60529328 C-589.91929027 544.61600964 -605.64289412 544.63395195 -621.36650272 544.65916704 C-630.6978241 544.67391437 -640.02911305 544.68322449 -649.36044619 544.68456683 C-655.60853631 544.6860137 -661.85659004 544.69473745 -668.10466359 544.70915592 C-671.65525439 544.71714776 -675.2057739 544.72218764 -678.75637324 544.71827881 C-698.63399544 544.70521412 -718.63836698 544.85977307 -738.125 549.25 C-739.61471313 549.57641479 -739.61471313 549.57641479 -741.13452148 549.90942383 C-778.67071141 558.36038776 -813.92453876 575.56700027 -842.37109375 601.71484375 C-844 603 -844 603 -846 603 C-846 603.66 -846 604.32 -846 605 C-847.46875 606.4453125 -847.46875 606.4453125 -849.5 608.125 C-857.02827976 614.55512999 -863.50225419 621.52634559 -869.63964844 629.29345703 C-871.150464 631.18875508 -872.68877827 633.06012138 -874.2265625 634.93359375 C-913.61912752 683.53768607 -929.09842062 743.62451918 -932 805 C-932.33 805 -932.66 805 -933 805 C-933.65397463 720.68719781 -933.65397463 720.68719781 -930 687 C-929.82658588 685.34912889 -929.65324772 683.69824981 -929.47998047 682.04736328 C-920.37525378 596.65983309 -897.26680236 511.01175404 -855 428 C-854.48630859 427.01515625 -853.97261719 426.0303125 -853.44335938 425.015625 C-832.81809981 385.57068415 -809.02805024 347.644508 -781 313 C-780.44666992 312.31518555 -779.89333984 311.63037109 -779.32324219 310.92480469 C-772.80649343 302.88232347 -766.21032073 294.96691521 -759.18359375 287.36328125 C-755.27371859 283.13166323 -751.44886552 278.83238875 -747.875 274.3125 C-746.23294875 272.28730346 -744.50384306 270.47931093 -742.65429688 268.64770508 C-740.56315784 266.56489851 -738.49566819 264.45939439 -736.42578125 262.35546875 C-734.72148124 260.63268678 -733.01705072 258.91003392 -731.3125 257.1875 C-730.44560547 256.30384766 -729.57871094 255.42019531 -728.68554688 254.50976562 C-727.85732422 253.67509766 -727.02910156 252.84042969 -726.17578125 251.98046875 C-725.42208252 251.21629639 -724.66838379 250.45212402 -723.8918457 249.66479492 C-722 248 -722 248 -720 248 C-720 247.34 -720 246.68 -720 246 C-718.671875 244.66015625 -718.671875 244.66015625 -716.75 243.0625 C-713.67044544 240.45003837 -710.66168782 237.78436184 -707.70385742 235.03442383 C-701.66995394 229.42603149 -695.42233236 224.16196122 -689 219 C-687.20766134 217.52164767 -685.41600064 216.04247303 -683.625 214.5625 C-652.06907162 188.79256695 -617.85333999 166.75819145 -581.55078125 148.29882812 C-579.31983888 147.16285823 -577.09623822 146.01415392 -574.875 144.859375 C-539.4282775 126.58094521 -501.34529442 113.27898411 -462.63166755 103.90032744 C-460.17656672 103.2916829 -457.72917641 102.65119229 -455.2899676 101.98169351 C-444.46370688 99.09020223 -434.33984603 98.43878146 -423.17564392 98.51898193 C-421.33780781 98.51723323 -419.49997269 98.51372286 -417.66214281 98.50862527 C-412.66092534 98.49976011 -407.66005615 98.51557122 -402.65888298 98.53573751 C-397.24740748 98.55312133 -391.83594932 98.54715813 -386.42445374 98.54412842 C-377.06491943 98.54203793 -367.70549724 98.55451539 -358.34599113 98.57707977 C-344.81397909 98.6096821 -331.2820209 98.6200152 -317.74997384 98.62503174 C-295.79153717 98.63377151 -273.83316016 98.66035123 -251.87475586 98.69824219 C-230.5528151 98.73499646 -209.23089994 98.76329149 -187.90893555 98.78027344 C-186.5931498 98.78132433 -185.27736405 98.78237523 -183.92170601 98.78345796 C-177.32034741 98.78867837 -170.71898868 98.79373314 -164.11762989 98.79870558 C-109.41170025 98.84012655 -54.70588106 98.91384222 0 99 C0 66.33 0 33.66 0 0 Z " fill="#021E4E" transform="translate(2028,100)"/>
<path d="M0 0 C0 3 0 3 -1.55651855 4.9172821 C-2.28487915 5.63898087 -3.01323975 6.36067963 -3.76367188 7.10424805 C-4.58452271 7.92487228 -5.40537354 8.74549652 -6.25109863 9.59098816 C-7.14792358 10.47232925 -8.04474854 11.35367035 -8.96875 12.26171875 C-9.87878784 13.16751175 -10.78882568 14.07330475 -11.72644043 15.00654602 C-14.14641371 17.41506262 -16.57526051 19.81443515 -19.00604248 22.21203613 C-21.48469348 24.66000399 -23.954878 27.11648202 -26.42578125 29.57226562 C-31.27558499 34.38989076 -36.13481275 39.19791214 -41 44 C-41.66 43.67 -42.32 43.34 -43 43 C-41.93987294 41.76878615 -40.87675995 40.54014315 -39.8125 39.3125 C-38.92498047 38.28576172 -38.92498047 38.28576172 -38.01953125 37.23828125 C-36.26137048 35.28968141 -34.45217601 33.42204911 -32.58618164 31.57739258 C-30.5165418 29.51922065 -28.47274249 27.4361926 -26.42578125 25.35546875 C-24.72148124 23.63268678 -23.01705072 21.91003392 -21.3125 20.1875 C-20.44560547 19.30384766 -19.57871094 18.42019531 -18.68554688 17.50976562 C-17.85732422 16.67509766 -17.02910156 15.84042969 -16.17578125 14.98046875 C-15.42208252 14.21629639 -14.66838379 13.45212402 -13.8918457 12.66479492 C-12 11 -12 11 -10 11 C-10 10.34 -10 9.68 -10 9 C-8.3203125 7.34375 -8.3203125 7.34375 -6.125 5.5 C-4.00964496 3.71066742 -1.95980876 1.95980876 0 0 Z " fill="#495C7F" transform="translate(1318,337)"/>
<path d="M0 0 C0.495 0.99 0.495 0.99 1 2 C-5.1163626 9.81243965 -11.63584039 16.98081023 -18.65820312 23.97387695 C-20.27109956 25.58355749 -21.87003632 27.20632377 -23.46875 28.83007812 C-24.50439898 29.86799572 -25.54082852 30.90513517 -26.578125 31.94140625 C-27.50012695 32.86638916 -28.42212891 33.79137207 -29.37207031 34.74438477 C-31.89499575 36.90987233 -33.85604412 38.00517167 -37 39 C-36.04882866 37.8274869 -35.08882991 36.66212985 -34.125 35.5 C-33.32449219 34.52546875 -33.32449219 34.52546875 -32.5078125 33.53125 C-32.01023437 33.0259375 -31.51265625 32.520625 -31 32 C-30.34 32 -29.68 32 -29 32 C-29 31.34 -29 30.68 -29 30 C-28.34 30 -27.68 30 -27 30 C-26.34 28.68 -25.68 27.36 -25 26 C-24.34 26 -23.68 26 -23 26 C-23 25.34 -23 24.68 -23 24 C-22.34 24 -21.68 24 -21 24 C-21 23.34 -21 22.68 -21 22 C-20.34 22 -19.68 22 -19 22 C-18.34 20.68 -17.68 19.36 -17 18 C-16.34 18 -15.68 18 -15 18 C-14.77183594 17.443125 -14.54367187 16.88625 -14.30859375 16.3125 C-12.63466461 13.35439238 -10.50800628 11.35572999 -8.0625 9 C-5.09866051 6.13655566 -2.36933065 3.37805558 0 0 Z " fill="#4CA5BF" transform="translate(1465,1963)"/>
<path d="M0 0 C0.66 0.33 1.32 0.66 2 1 C-7.57 10.57 -17.14 20.14 -27 30 C-27.66 29.67 -28.32 29.34 -29 29 C-7.78857143 6.23085714 -7.78857143 6.23085714 0 0 Z " fill="#52A8C2" transform="translate(1271,1025)"/>
<path d="M0 0 C0.66 0.66 1.32 1.32 2 2 C1.57589844 2.4125 1.15179687 2.825 0.71484375 3.25 C-3.75238723 7.64850435 -7.9278528 12.23472137 -12 17 C-12.66 16.67 -13.32 16.34 -14 16 C-13.24074219 15.18015625 -12.48148438 14.3603125 -11.69921875 13.515625 C-10.69521546 12.42717284 -9.6913146 11.33862618 -8.6875 10.25 C-8.18798828 9.71117187 -7.68847656 9.17234375 -7.17382812 8.6171875 C-4.62043007 5.84396048 -2.18903551 3.07809771 0 0 Z " fill="#485C7F" transform="translate(1274,381)"/>
<path d="M0 0 C0 3 0 3 -2.1875 5.26171875 C-3.115625 6.06222656 -4.04375 6.86273438 -5 7.6875 C-5.928125 8.49574219 -6.85625 9.30398438 -7.8125 10.13671875 C-8.8953125 11.05904297 -8.8953125 11.05904297 -10 12 C-10.99 11.67 -11.98 11.34 -13 11 C-8.73958774 7.23645964 -4.48151089 3.50118038 0 0 Z " fill="#405579" transform="translate(1332,325)"/>
</svg>
